<svg width="100" height="100" viewBox="0 0 100 100" fill="none" xmlns="http://www.w3.org/2000/svg">
<g clip-path="url(#clip0_1394_50)">
<path d="M72.8251 41.6666H72.9167C77.8895 41.6666 82.6587 43.6421 86.175 47.1584C89.6913 50.6747 91.6667 55.4438 91.6667 60.4166C91.6667 65.3894 89.6913 70.1586 86.175 73.6749C82.6587 77.1912 77.8895 79.1666 72.9167 79.1666H29.1667C23.814 79.1677 18.6663 77.1084 14.7911 73.4159C10.9159 69.7234 8.61066 64.681 8.35344 59.3344C8.09621 53.9879 9.90674 48.7475 13.4095 44.7C16.9124 40.6526 21.8386 38.1086 27.1667 37.5958M72.8251 41.6666C72.8834 40.9805 72.914 40.2861 72.9167 39.5833C72.9258 33.6715 70.65 27.9849 66.5647 23.7118C62.4795 19.4386 56.9009 16.9095 50.9947 16.653C45.0885 16.3964 39.3116 18.4322 34.8712 22.3349C30.4308 26.2377 27.6704 31.7055 27.1667 37.5958M72.8251 41.6666C72.4057 46.2559 70.6123 50.6121 67.6792 54.1666M27.1667 37.5958C27.8251 37.5319 28.4917 37.5 29.1667 37.5C33.8584 37.5 38.1876 39.05 41.6667 41.6666" stroke="#1F2937" stroke-width="7" stroke-linecap="round" stroke-linejoin="round"/>
</g>
<defs>
<clipPath id="clip0_1394_50">
<rect width="100" height="100" fill="white"/>
</clipPath>
</defs>
</svg>
